<svg width="34" height="128" viewBox="0 0 34 128" fill="none" xmlns="http://www.w3.org/2000/svg">
<path d="M17.689 37.5458C17.5959 37.763 17.4411 37.9482 17.2438 38.0784C17.0465 38.2085 16.8153 38.2779 16.5789 38.2779C16.3426 38.2779 16.1114 38.2085 15.9141 38.0784C15.7168 37.9482 15.562 37.763 15.4689 37.5458L0.563849 2.76614L0.56214 2.76444L0.0976369 1.68515C0.00975556 1.48064 -0.0198859 1.25581 0.0119874 1.03551C0.0438607 0.815202 0.13601 0.607995 0.278253 0.436774C0.420495 0.265553 0.607295 0.136981 0.818022 0.0652602C1.02875 -0.00646029 1.2552 -0.0185378 1.47236 0.0303613L2.61654 0.28652L2.62166 0.284813L16.5789 12.0755L30.5362 0.284811H30.543L31.6872 0.0286523C31.9041 -0.0194622 32.1301 -0.00679461 32.3403 0.0652604C32.5505 0.137315 32.7367 0.265964 32.8785 0.437046C33.0203 0.608128 33.1121 0.815008 33.1438 1.03492C33.1756 1.25482 33.1461 1.47923 33.0585 1.68344L17.689 37.5458Z" fill="#272261"/>
<line y1="-0.5" x2="69.6471" y2="-0.5" transform="matrix(-4.37114e-08 1 1 4.37114e-08 16 43)" stroke="#171717" stroke-dasharray="5 5"/>
<circle cx="4.83019" cy="4.83019" r="4.83019" transform="matrix(-1 0 0 1 21.0781 118.34)" fill="#BE283E"/>
<circle cx="2.41509" cy="2.41509" r="2.41509" transform="matrix(-1 0 0 1 18.6621 120.755)" fill="white"/>
</svg>
