<svg id="Layer_1" data-name="Layer 1" xmlns="http://www.w3.org/2000/svg" viewBox="0 0 24 24"><defs><style>.cls-1{fill:#ffc700;}.cls-2{fill:#fff;}</style></defs><g id="surface1"><path class="cls-1" d="M20.31,32.2a12,12,0,1,1,24,0,12.13,12.13,0,0,1-12.1,12A12,12,0,0,1,20.31,32.2Zm.87-.07c0,6.22,4.73,10.9,11.07,11.21A11.35,11.35,0,0,0,43.48,32.2c-.28-6.33-4.81-11.11-11.23-11.14A11,11,0,0,0,21.18,32.13Z" transform="translate(-20.31 -20.16)"/><path class="cls-1" d="M32.31,21.41A10.78,10.78,0,1,1,21.48,32,10.78,10.78,0,0,1,32.31,21.41Zm2.37,6.41c-.14.15-.27.27-.38.41-1.14,1.43-2.27,2.88-3.41,4.32l-1.74,2.2c-.1.13-.24.26,0,.42l.82.67c.17.15.31.12.45-.07.41-.54.83-1.07,1.24-1.6,1.21-1.58,2.42-3.17,3.64-4.74.67-.86.55-.62-.12-1.25C35,28.06,34.85,28,34.68,27.82Zm.63-.9c.28.25.53.47.76.69s.35.19.51,0,.37-.47.56-.7c.67-.85.67-.84-.24-1.47a.3.3,0,0,0-.48.08C36.05,25.94,35.69,26.42,35.31,26.92ZM28.44,35.7,28,37.57l.11.06,1.57-1Z" transform="translate(-20.31 -20.16)"/><path class="cls-2" d="M34.68,27.82c.17.14.33.24.46.36.67.64.79.39.12,1.26C34,31,32.84,32.59,31.62,34.17c-.4.54-.83,1.07-1.24,1.61-.14.19-.27.21-.45.06s-.54-.45-.82-.66-.08-.29,0-.42l1.75-2.21c1.14-1.44,2.27-2.88,3.41-4.31C34.41,28.1,34.54,28,34.68,27.82Z" transform="translate(-20.31 -20.16)"/><path class="cls-2" d="M35.31,26.92c.38-.5.74-1,1.11-1.45.13-.18.26-.22.48-.08.91.63.91.62.24,1.47-.19.23-.39.46-.56.7s-.33.22-.51,0Z" transform="translate(-20.31 -20.16)"/><path class="cls-2" d="M28.44,35.7l1.2.91-1.57,1L28,37.57C28.1,37,28.25,36.41,28.44,35.7Z" transform="translate(-20.31 -20.16)"/></g></svg>