<?xml version="1.0" encoding="UTF-8"?>
<svg xmlns="http://www.w3.org/2000/svg" xmlns:xlink="http://www.w3.org/1999/xlink" width="63px" height="65px" viewBox="0 0 63 64" version="1.1">
<g id="surface1">
<path style=" stroke:none;fill-rule:nonzero;fill:rgb(100%,78.039216%,0%);fill-opacity:1;" d="M 1.570312 31.761719 C 1.148438 15.164062 15.335938 1.171875 32.265625 1.210938 C 49.234375 1.230469 63.082031 15.085938 63.058594 31.761719 C 63.058594 48.078125 49.171875 62.171875 32.0625 62.113281 C 15.359375 62.050781 1.128906 47.980469 1.570312 31.761719 Z M 3.785156 31.582031 C 3.863281 47.363281 15.921875 59.25 32.164062 60.023438 C 48.40625 59.210938 60.042969 48.097656 60.925781 31.761719 C 60.222656 15.703125 48.609375 3.558594 32.144531 3.5 C 16.261719 3.457031 3.863281 15.941406 3.785156 31.582031 Z M 3.785156 31.582031 "/>
<path style=" stroke:none;fill-rule:nonzero;fill:rgb(100%,78.039216%,0%);fill-opacity:1;" d="M 32.304688 4.371094 C 47.402344 4.195312 60.101562 16.636719 59.980469 31.878906 C 59.859375 46.808594 47.523438 59.390625 31.601562 59.050781 C 16.785156 58.753906 4.429688 46.628906 4.570312 31.34375 C 4.710938 16.335938 17.410156 4.152344 32.304688 4.371094 Z M 38.382812 20.652344 C 38.019531 21.027344 37.699219 21.328125 37.417969 21.683594 C 34.5 25.320312 31.601562 28.980469 28.683594 32.636719 C 27.191406 34.503906 25.703125 36.351562 24.214844 38.222656 C 23.953125 38.558594 23.609375 38.898438 24.132812 39.292969 C 24.835938 39.851562 25.523438 40.425781 26.226562 40.984375 C 26.667969 41.363281 27.03125 41.300781 27.394531 40.824219 C 28.441406 39.453125 29.507812 38.101562 30.574219 36.75 C 33.671875 32.753906 36.773438 28.71875 39.894531 24.726562 C 41.605469 22.539062 41.300781 23.15625 39.589844 21.546875 C 39.230469 21.246094 38.828125 21.007812 38.382812 20.652344 Z M 39.992188 18.363281 C 40.71875 19 41.34375 19.558594 41.945312 20.113281 C 42.429688 20.550781 42.851562 20.589844 43.253906 20.015625 C 43.699219 19.398438 44.199219 18.824219 44.683594 18.226562 C 46.414062 16.078125 46.394531 16.097656 44.078125 14.507812 C 43.515625 14.113281 43.175781 14.25 42.832031 14.707031 C 41.90625 15.878906 40.980469 17.09375 39.992188 18.363281 Z M 22.402344 40.644531 C 21.9375 42.433594 21.558594 43.90625 21.175781 45.394531 C 21.273438 45.4375 21.355469 45.496094 21.457031 45.535156 C 22.746094 44.699219 24.03125 43.886719 25.480469 42.953125 C 24.433594 42.15625 23.550781 41.5 22.402344 40.644531 Z M 22.402344 40.644531 "/>
<path style=" stroke:none;fill-rule:nonzero;fill:rgb(100%,100%,100%);fill-opacity:1;" d="M 38.382812 20.652344 C 38.828125 20.988281 39.230469 21.246094 39.570312 21.566406 C 41.28125 23.175781 41.585938 22.558594 39.875 24.746094 C 36.753906 28.742188 33.671875 32.753906 30.554688 36.769531 C 29.507812 38.121094 28.421875 39.472656 27.375 40.84375 C 27.011719 41.320312 26.667969 41.382812 26.207031 41.003906 C 25.523438 40.425781 24.835938 39.851562 24.113281 39.3125 C 23.589844 38.898438 23.910156 38.578125 24.195312 38.242188 C 25.683594 36.371094 27.191406 34.523438 28.660156 32.65625 C 31.582031 29 34.480469 25.339844 37.398438 21.703125 C 37.679688 21.347656 38.019531 21.027344 38.382812 20.652344 Z M 38.382812 20.652344 "/>
<path style=" stroke:none;fill-rule:nonzero;fill:rgb(100%,100%,100%);fill-opacity:1;" d="M 39.992188 18.363281 C 40.980469 17.09375 41.90625 15.878906 42.832031 14.6875 C 43.175781 14.230469 43.515625 14.113281 44.078125 14.488281 C 46.394531 16.078125 46.414062 16.058594 44.683594 18.207031 C 44.199219 18.800781 43.699219 19.378906 43.253906 19.996094 C 42.832031 20.570312 42.410156 20.53125 41.945312 20.09375 C 41.34375 19.558594 40.71875 19 39.992188 18.363281 Z M 39.992188 18.363281 "/>
<path style=" stroke:none;fill-rule:nonzero;fill:rgb(100%,100%,100%);fill-opacity:1;" d="M 22.402344 40.644531 C 23.550781 41.5 24.433594 42.175781 25.480469 42.953125 C 24.03125 43.886719 22.746094 44.699219 21.457031 45.535156 C 21.355469 45.496094 21.273438 45.4375 21.175781 45.394531 C 21.535156 43.90625 21.917969 42.433594 22.402344 40.644531 Z M 22.402344 40.644531 "/>
</g>
</svg>
