<svg width="24" height="20" viewBox="0 0 24 20" fill="none" xmlns="http://www.w3.org/2000/svg">
<path d="M1.2 8.49438H2.4V15.7753H1.2C1.04236 15.7755 0.886227 15.7442 0.740547 15.6833C0.594867 15.6224 0.462502 15.533 0.351032 15.4203C0.239563 15.3076 0.151179 15.1737 0.0909434 15.0264C0.0307077 14.8791 -0.000196483 14.7212 9.39936e-07 14.5618V9.70786C-0.000196483 9.54845 0.0307077 9.39057 0.0909434 9.24325C0.151179 9.09593 0.239563 8.96208 0.351032 8.84936C0.462502 8.73664 0.594867 8.64726 0.740547 8.58635C0.886227 8.52543 1.04236 8.49418 1.2 8.49438ZM20.4 6.67416V16.9888C20.3994 17.6322 20.1463 18.2492 19.6964 18.7042C19.2464 19.1592 18.6363 19.4151 18 19.4157H6C5.36367 19.4151 4.75359 19.1592 4.30364 18.7042C3.85368 18.2492 3.60063 17.6322 3.6 16.9888V6.67416C3.59987 6.27573 3.67738 5.88118 3.8281 5.51305C3.97882 5.14493 4.19979 4.81044 4.47839 4.52871C4.757 4.24698 5.08776 4.02352 5.4518 3.87111C5.81583 3.7187 6.206 3.64032 6.6 3.64045H10.8V1.21348C10.8 0.891647 10.9264 0.582993 11.1515 0.355421C11.3765 0.127849 11.6817 0 12 0C12.3183 0 12.6235 0.127849 12.8485 0.355421C13.0736 0.582993 13.2 0.891647 13.2 1.21348V3.64045H17.4C17.794 3.64032 18.1842 3.7187 18.5482 3.87111C18.9122 4.02352 19.243 4.24698 19.5216 4.52871C19.8002 4.81044 20.0212 5.14493 20.1719 5.51305C20.3226 5.88118 20.4001 6.27573 20.4 6.67416ZM9.9 9.70786C9.9 9.40786 9.81203 9.11459 9.64721 8.86515C9.48238 8.6157 9.24812 8.42128 8.97403 8.30647C8.69994 8.19167 8.39834 8.16163 8.10736 8.22016C7.81639 8.27868 7.54912 8.42315 7.33934 8.63529C7.12956 8.84742 6.9867 9.1177 6.92882 9.41194C6.87094 9.70618 6.90065 10.0112 7.01418 10.2883C7.12771 10.5655 7.31997 10.8024 7.56665 10.9691C7.81332 11.1358 8.10333 11.2247 8.4 11.2247C8.59699 11.2247 8.79205 11.1855 8.97404 11.1093C9.15604 11.0331 9.3214 10.9213 9.46069 10.7805C9.59998 10.6396 9.71047 10.4724 9.78585 10.2884C9.86123 10.1043 9.90002 9.90707 9.9 9.70786ZM9.6 14.5618H7.2V15.7753H9.6V14.5618ZM13.2 14.5618H10.8V15.7753H13.2V14.5618ZM17.1 9.70786C17.1 9.40786 17.012 9.11459 16.8472 8.86515C16.6824 8.6157 16.4481 8.42128 16.174 8.30647C15.8999 8.19167 15.5983 8.16163 15.3074 8.22016C15.0164 8.27868 14.7491 8.42315 14.5393 8.63529C14.3296 8.84742 14.1867 9.1177 14.1288 9.41194C14.0709 9.70618 14.1006 10.0112 14.2142 10.2883C14.3277 10.5655 14.52 10.8024 14.7666 10.9691C15.0133 11.1358 15.3033 11.2247 15.6 11.2247C15.797 11.2247 15.992 11.1855 16.174 11.1093C16.356 11.0331 16.5214 10.9213 16.6607 10.7805C16.8 10.6396 16.9105 10.4724 16.9858 10.2884C17.0612 10.1043 17.1 9.90707 17.1 9.70786ZM16.8 14.5618H14.4V15.7753H16.8V14.5618ZM24 9.70786V14.5618C24.0002 14.7212 23.9693 14.8791 23.9091 15.0264C23.8488 15.1737 23.7604 15.3076 23.649 15.4203C23.5375 15.533 23.4051 15.6224 23.2595 15.6833C23.1138 15.7442 22.9576 15.7755 22.8 15.7753H21.6V8.49438H22.8C22.9576 8.49418 23.1138 8.52543 23.2595 8.58635C23.4051 8.64726 23.5375 8.73664 23.649 8.84936C23.7604 8.96208 23.8488 9.09593 23.9091 9.24325C23.9693 9.39057 24.0002 9.54845 24 9.70786Z" fill="white"/>
</svg>
