<svg width="128" height="121" viewBox="0 0 128 121" fill="none" xmlns="http://www.w3.org/2000/svg">
<path d="M12.16 120.123C8.69647 120.123 5.80518 118.967 3.48612 116.655C1.16706 114.342 0.00501961 111.457 0 107.998V12.1249C0 8.67138 1.16204 5.78843 3.48612 3.47606C5.81019 1.16369 8.70149 0.00500513 12.16 0H108.311C111.774 0 114.665 1.15869 116.984 3.47606C119.304 5.79343 120.466 8.67639 120.471 12.1249V22.5231H72.3953C66.3818 22.5231 61.5981 24.2974 58.0442 27.846C54.4904 31.3947 52.7109 36.1646 52.7059 42.1557V77.9674C52.7059 83.9635 54.4853 88.7334 58.0442 92.277C61.6031 95.8207 66.3868 97.595 72.3953 97.6H120.471V107.998C120.471 111.452 119.311 114.335 116.992 116.647C114.673 118.959 111.779 120.118 108.311 120.123H12.16ZM72.3953 90.0923C68.9318 90.0923 66.0405 88.9361 63.7214 86.6238C61.4024 84.3114 60.2403 81.4259 60.2353 77.9674V42.1557C60.2353 38.7022 61.3973 35.8192 63.7214 33.5068C66.0455 31.1945 68.9368 30.0358 72.3953 30.0308H115.84C119.304 30.0308 122.195 31.1895 124.514 33.5068C126.833 35.8242 127.995 38.7072 128 42.1557V77.9674C128 81.4209 126.84 84.3064 124.521 86.6238C122.202 88.9411 119.309 90.0973 115.84 90.0923H72.3953ZM90.3529 71.3231C93.6157 71.3231 96.3137 70.2595 98.4471 68.1323C100.58 66.0051 101.647 63.3149 101.647 60.0615C101.647 56.8082 100.58 54.118 98.4471 51.9908C96.3137 49.8636 93.6157 48.8 90.3529 48.8C87.0902 48.8 84.3922 49.8636 82.2588 51.9908C80.1255 54.118 79.0588 56.8082 79.0588 60.0615C79.0588 63.3149 80.1255 66.0051 82.2588 68.1323C84.3922 70.2595 87.0902 71.3231 90.3529 71.3231Z" fill="black"/>
</svg>
