<svg width="35" height="35" viewBox="0 0 35 35" fill="none" xmlns="http://www.w3.org/2000/svg">
<path fill-rule="evenodd" clip-rule="evenodd" d="M0.5679 0.5679C0.931997 0.204255 1.42555 0 1.94014 0C2.45473 0 2.94828 0.204255 3.31238 0.5679L34.382 31.6375C34.5727 31.8152 34.7258 32.0296 34.8319 32.2678C34.938 32.506 34.9951 32.7632 34.9997 33.0239C35.0043 33.2846 34.9563 33.5436 34.8587 33.7854C34.761 34.0272 34.6156 34.2469 34.4312 34.4312C34.2469 34.6156 34.0272 34.761 33.7854 34.8587C33.5436 34.9563 33.2846 35.0043 33.0239 34.9997C32.7632 34.9951 32.506 34.938 32.2678 34.8319C32.0296 34.7258 31.8152 34.5727 31.6375 34.382L0.5679 3.31238C0.204255 2.94828 0 2.45473 0 1.94014C0 1.42555 0.204255 0.931997 0.5679 0.5679Z" fill="#D93D33"/>
<path fill-rule="evenodd" clip-rule="evenodd" d="M34.3821 0.5679C34.7457 0.931997 34.95 1.42555 34.95 1.94014C34.95 2.45473 34.7457 2.94828 34.3821 3.31238L3.31253 34.382C2.94442 34.725 2.45754 34.9117 1.95447 34.9028C1.4514 34.8939 0.971409 34.6902 0.615629 34.3344C0.259849 33.9786 0.0560536 33.4986 0.0471775 32.9955C0.0383014 32.4925 0.225037 32.0056 0.568045 31.6375L31.6376 0.5679C32.0017 0.204255 32.4953 0 33.0099 0C33.5245 0 34.018 0.204255 34.3821 0.5679Z" fill="#D93D33"/>
</svg>
