<svg width="16" height="16" viewBox="0 0 16 16" fill="none" xmlns="http://www.w3.org/2000/svg">
<path fill-rule="evenodd" clip-rule="evenodd" d="M9.2 0C7.6608 0 6.4 1.2576 6.4 2.79216C6.4 3.01616 6.4272 3.23376 6.47776 3.44288L5.46656 3.91248L0.56848 1.63728C0.516828 1.61326 0.460641 1.60055 0.40368 1.6C0.350842 1.59951 0.298432 1.6095 0.249476 1.62938C0.20052 1.64927 0.155989 1.67865 0.118455 1.71585C0.0809213 1.75304 0.051128 1.7973 0.0307964 1.84607C0.0104647 1.89484 -2.23587e-06 1.94716 3.58246e-10 2L3.58246e-10 13.2464C1.27922e-05 13.3226 0.0218119 13.3973 0.0628297 13.4615C0.103847 13.5258 0.162375 13.577 0.23152 13.6091L5.29808 15.9627C5.35198 15.9878 5.4108 16.0005 5.47024 16C5.5273 15.9995 5.5836 15.9869 5.63536 15.9629L10.5334 13.6875L15.4315 15.9627C15.4925 15.991 15.5596 16.0035 15.6266 15.999C15.6937 15.9946 15.7585 15.9733 15.8152 15.9371C15.8718 15.901 15.9184 15.8511 15.9507 15.7922C15.983 15.7333 16 15.6672 16 15.6V4.3536C16 4.27736 15.9782 4.20271 15.9372 4.13845C15.8962 4.07419 15.8376 4.02299 15.7685 3.99088L11.9374 2.2112C11.6672 0.952639 10.5394 0 9.2 0ZM9.2 1.30848C10.0288 1.30848 10.6878 1.96576 10.6878 2.79216C10.6878 3.61856 10.0286 4.27568 9.2 4.27568C8.3712 4.27568 7.71216 3.61856 7.71216 2.79216C7.71216 1.96576 8.37136 1.30848 9.2 1.30848ZM0.8 2.62688L5.164 4.65408L5.22336 15.0461L0.8 12.9907V2.62688ZM11.9797 3.1128L15.2 4.6088V14.9731L10.7715 12.916L10.7302 5.71311L11.6866 4.08592C11.7299 4.00752 11.764 3.92416 11.7938 3.83872C11.8884 3.60629 11.9509 3.36208 11.9797 3.1128ZM6.77872 4.18528C6.82032 4.25664 6.86368 4.32656 6.9112 4.39376L8.8584 7.75935C9.13104 8.11567 9.31232 8.04799 9.53904 7.74063L10.255 6.52223L10.2915 12.9174L5.70336 15.0491L5.64432 4.71216L6.77872 4.18528Z" fill="black"/>
</svg>
