<svg width="128" height="150" viewBox="0 0 128 150" fill="none" xmlns="http://www.w3.org/2000/svg">
<path d="M96 42.8353V58.8985C96 60.3186 95.4381 61.6805 94.4379 62.6847C93.4377 63.6888 92.0812 64.253 90.6667 64.253H85.3333V42.8353H42.6667V64.253H37.3333C35.9188 64.253 34.5623 63.6888 33.5621 62.6847C32.5619 61.6805 32 60.3186 32 58.8985V42.8353H10.6667V139.215H117.333V42.8353H96ZM32 32.1265C32 23.606 35.3714 15.4345 41.3726 9.40963C47.3737 3.38474 55.5131 0 64 0C72.4869 0 80.6263 3.38474 86.6274 9.40963C92.6286 15.4345 96 23.606 96 32.1265H122.667C124.081 32.1265 125.438 32.6906 126.438 33.6948C127.438 34.6989 128 36.0608 128 37.4809V144.569C128 145.989 127.438 147.351 126.438 148.355C125.438 149.359 124.081 149.924 122.667 149.924H5.33333C3.91885 149.924 2.56229 149.359 1.5621 148.355C0.561904 147.351 0 145.989 0 144.569V37.4809C0 36.0608 0.561904 34.6989 1.5621 33.6948C2.56229 32.6906 3.91885 32.1265 5.33333 32.1265H32ZM42.6667 32.1265H85.3333C85.3333 26.4462 83.0857 20.9985 79.0849 16.9819C75.0842 12.9653 69.658 10.7088 64 10.7088C58.342 10.7088 52.9158 12.9653 48.9151 16.9819C44.9143 20.9985 42.6667 26.4462 42.6667 32.1265Z" fill="black"/>
<path d="M10.667 107.088H117.334V117.797H10.667V107.088Z" fill="black"/>
</svg>
