<?xml version="1.0" encoding="UTF-8"?>
<svg xmlns="http://www.w3.org/2000/svg" xmlns:xlink="http://www.w3.org/1999/xlink" width="34px" height="34px" viewBox="0 0 34 34" version="1.1">
<g id="surface1">
<path style=" stroke:none;fill-rule:nonzero;fill:rgb(100%,78.039216%,0%);fill-opacity:1;" d="M 17 0 C 26.398438 0 34 7.601562 34 17 C 34 26.398438 26.398438 34 17 34 C 7.601562 34 0 26.398438 0 17 C 0 7.601562 7.601562 0 17 0 Z M 17 0 "/>
<path style=" stroke:none;fill-rule:nonzero;fill:rgb(100%,100%,100%);fill-opacity:1;" d="M 8 9.300781 C 8 9.300781 8.199219 8.199219 9.199219 8 L 13 8 C 13 8 14.199219 8.199219 14.199219 9.101562 C 14.199219 9.101562 14.398438 12.5 14.898438 13.199219 C 14.898438 13.199219 14.898438 13.699219 14.5 13.898438 L 13 16 C 13 16 14.898438 20 17.800781 21.101562 C 17.800781 21.101562 20.199219 19.398438 20.300781 19.300781 C 20.398438 19.199219 21 19.101562 21.5 19.199219 C 21.5 19.199219 23.300781 20 25 19.800781 C 25 19.800781 26.101562 20.398438 25.898438 21 L 25.898438 24.800781 C 25.898438 24.800781 25.601562 25.898438 24.601562 25.898438 C 24.601562 25.898438 17.398438 26.601562 12.398438 20.898438 C 12.5 20.898438 7.898438 15.898438 8 9.300781 Z M 8 9.300781 "/>
</g>
</svg>
