<svg width="19" height="18" viewBox="0 0 19 18" fill="none" xmlns="http://www.w3.org/2000/svg">
<path d="M8.88002 1H3.98156C3.32872 1 2.70262 1.25934 2.24099 1.72097C1.77936 2.1826 1.52002 2.8087 1.52002 3.46154V14.5385C1.52002 15.1913 1.77936 15.8174 2.24099 16.279C2.70262 16.7407 3.32872 17 3.98156 17H15.0585C15.7113 17 16.3374 16.7407 16.799 16.279C17.2607 15.8174 17.52 15.1913 17.52 14.5385V10.28" stroke="black" stroke-width="1.3" stroke-linecap="round" stroke-linejoin="round"/>
<path d="M7.66578 8.69537L10.2557 11.4348L6.63965 12.52L7.66578 8.69537ZM13.6285 2.38933L16.2179 5.12821L10.514 11.1606L7.92403 8.42234L13.6285 2.38933ZM15.5966 1.20047L17.3007 3.00277C17.7628 3.49122 17.3499 3.93186 17.3499 3.93186L16.479 4.85345L13.8884 2.11343L14.7594 1.19241L14.7708 1.18146C14.839 1.11695 15.2146 0.796694 15.5966 1.20047Z" fill="black"/>
</svg>
