<?xml version="1.0" encoding="UTF-8"?>
<svg xmlns="http://www.w3.org/2000/svg" xmlns:xlink="http://www.w3.org/1999/xlink" width="34px" height="34px" viewBox="0 0 34 34" version="1.1">
<g id="surface1">
<path style=" stroke:none;fill-rule:nonzero;fill:rgb(100%,78.039216%,0%);fill-opacity:1;" d="M 17 0 C 26.390625 0 34 7.609375 34 17 C 34 26.390625 26.390625 34 17 34 C 7.609375 34 0 26.390625 0 17 C 0 7.609375 7.609375 0 17 0 Z M 17 0 "/>
<path style=" stroke:none;fill-rule:nonzero;fill:rgb(100%,100%,100%);fill-opacity:1;" d="M 8.730469 10.53125 L 25.179688 10.53125 C 25.101562 10.742188 24.996094 10.945312 24.871094 11.128906 C 22.679688 13.320312 20.488281 15.519531 18.269531 17.691406 C 17.960938 18.070312 17.5 18.292969 17.011719 18.292969 C 16.519531 18.292969 16.058594 18.070312 15.75 17.691406 C 13.511719 15.5 11.300781 13.28125 9.078125 11.058594 C 8.953125 10.890625 8.835938 10.714844 8.730469 10.53125 Z M 8.730469 10.53125 "/>
<path style=" stroke:none;fill-rule:nonzero;fill:rgb(100%,100%,100%);fill-opacity:1;" d="M 25.339844 23.46875 L 8.730469 23.46875 C 8.898438 23.191406 9.089844 22.929688 9.300781 22.679688 C 10.738281 21.230469 12.199219 19.800781 13.628906 18.339844 C 14.070312 17.890625 14.359375 17.828125 14.859375 18.339844 C 16.328125 19.75 17.660156 19.75 19.121094 18.339844 C 19.609375 17.871094 19.898438 17.878906 20.351562 18.339844 C 21.78125 19.808594 23.238281 21.230469 24.691406 22.671875 C 24.859375 22.839844 25 23.050781 25.339844 23.46875 Z M 25.339844 23.46875 "/>
<path style=" stroke:none;fill-rule:nonzero;fill:rgb(100%,100%,100%);fill-opacity:1;" d="M 7.761719 22.480469 L 7.761719 11.480469 C 7.988281 11.605469 8.207031 11.75 8.410156 11.910156 L 13 16.421875 C 13.328125 16.75 13.519531 17.039062 13.101562 17.421875 C 11.449219 19 9.859375 20.621094 8.261719 22.199219 C 8.105469 22.3125 7.9375 22.40625 7.761719 22.480469 Z M 7.761719 22.480469 "/>
<path style=" stroke:none;fill-rule:nonzero;fill:rgb(100%,100%,100%);fill-opacity:1;" d="M 26.238281 11.511719 L 26.238281 22.511719 C 26.003906 22.367188 25.78125 22.207031 25.570312 22.03125 C 24.050781 20.539062 22.570312 19.03125 21.03125 17.539062 C 20.679688 17.199219 20.539062 16.898438 20.949219 16.539062 C 22.578125 14.949219 24.199219 13.339844 25.820312 11.738281 C 25.949219 11.644531 26.089844 11.566406 26.238281 11.511719 Z M 26.238281 11.511719 "/>
</g>
</svg>
