<svg width="128" height="138" viewBox="0 0 128 138" fill="none" xmlns="http://www.w3.org/2000/svg">
<path d="M40.4191 10.0315C46.4066 3.56245 54.7695 0 64 0C73.2797 0 81.6703 3.54089 87.6301 9.96993C93.6546 16.4698 96.5899 25.3035 95.9007 34.8424C94.5345 53.6615 80.2242 68.9705 64 68.9705C47.7758 68.9705 33.4901 53.6646 32.1024 34.8486C31.404 25.3959 34.3577 16.5806 40.4191 10.0315ZM9.84764 137.941H118.152C119.57 137.959 120.974 137.661 122.262 137.069C123.55 136.476 124.69 135.603 125.598 134.514C127.598 132.122 128.404 128.855 127.807 125.551C125.211 111.135 117.106 99.025 104.368 90.5237C93.0515 82.977 78.7165 78.8234 64 78.8234C49.2835 78.8234 34.9485 82.9801 23.6319 90.5237C10.8938 99.0219 2.78937 111.132 0.192523 125.548C-0.404384 128.852 0.401746 132.118 2.40169 134.511C3.30999 135.601 4.44965 136.474 5.7377 137.067C7.02575 137.661 8.42979 137.959 9.84764 137.941Z" fill="black"/>
</svg>
