<svg width="87" height="99" viewBox="0 0 87 99" fill="none" xmlns="http://www.w3.org/2000/svg">
<path d="M26.4791 16.5C31.0756 16.5 34.7648 12.7772 34.7648 8.25C34.7648 3.67331 31.0756 0 26.4791 0C21.9095 0 18.1934 3.67538 18.1934 8.25C18.1934 12.7772 21.9095 16.5 26.4791 16.5ZM32.3288 92.1422C18.2182 92.1422 6.77564 80.5901 6.77564 66.2846C6.77564 58.4533 10.2743 51.4656 15.7325 46.7136L15.2789 38.6244C6.13971 44.4036 0 54.5696 0 66.2846C0 84.3356 14.4648 99 32.3288 99C45.4741 99 57.0927 89.7786 62.1429 78.375L57.2211 71.6265C54.7893 83.3106 44.6061 92.1422 32.3288 92.1422ZM82.8571 76.3125H78.7143L62.1429 53.625C61.2459 52.0554 58 47.4375 53.8571 47.4375H35.2143V39.1875H51.7857C53.9317 39.1875 56.2476 38.2779 56.2476 36.0814C56.2476 33.9013 53.9918 33 51.7857 33H35.2143V24.75C34.9098 20.1754 31.0714 18.5625 26.9493 18.6574C22.7857 18.7522 20.7143 20.625 20.7143 24.75V53.625C21.1079 58.2574 24.4574 59.8125 29 59.8125H53.8571L68.3571 78.375C69.2914 79.9136 72.5 84.5625 72.5 84.5625H82.8571C84.9949 84.5625 87 82.6279 87 80.4375C87 78.2574 85.0611 76.3125 82.8571 76.3125Z" fill="#979393"/>
</svg>
