<svg width="128" height="128" viewBox="0 0 128 128" fill="none" xmlns="http://www.w3.org/2000/svg">
<path d="M63.68 102.4C65.92 102.4 67.8144 101.626 69.3632 100.077C70.912 98.528 71.6842 96.6357 71.68 94.4C71.6757 92.1642 70.9034 90.2698 69.3632 88.7168C67.8229 87.1637 65.9285 86.3914 63.68 86.4C61.4314 86.4085 59.5392 87.1829 58.0032 88.7232C56.4672 90.2634 55.6928 92.1557 55.68 94.4C55.6672 96.6442 56.4416 98.5386 58.0032 100.083C59.5648 101.628 61.457 102.4 63.68 102.4ZM57.92 77.76H69.76C69.76 74.24 70.161 71.4667 70.9632 69.44C71.7653 67.4133 74.0309 64.64 77.76 61.12C80.5333 58.3467 82.72 55.7056 84.32 53.1968C85.92 50.688 86.72 47.6757 86.72 44.16C86.72 38.1867 84.5333 33.6 80.16 30.4C75.7866 27.2 70.6133 25.6 64.64 25.6C58.56 25.6 53.6277 27.2 49.8432 30.4C46.0586 33.6 43.4176 37.44 41.92 41.92L52.48 46.08C53.0133 44.16 54.2144 42.08 56.0832 39.84C57.952 37.6 60.8042 36.48 64.64 36.48C68.0533 36.48 70.6133 37.4144 72.32 39.2832C74.0266 41.152 74.88 43.2043 74.88 45.44C74.88 47.5733 74.24 49.5744 72.96 51.4432C71.68 53.312 70.08 55.0443 68.16 56.64C63.4666 60.8 60.5866 63.9467 59.52 66.08C58.4533 68.2133 57.92 72.1066 57.92 77.76ZM64 128C55.1466 128 46.8266 126.321 39.04 122.963C31.2533 119.605 24.48 115.044 18.72 109.28C12.96 103.516 8.40107 96.7424 5.04321 88.96C1.68534 81.1776 0.00427477 72.8576 8.10126e-06 64C-0.00425856 55.1424 1.67681 46.8224 5.04321 39.04C8.4096 31.2576 12.9685 24.4843 18.72 18.72C24.4715 12.9558 31.2448 8.39683 39.04 5.04323C46.8352 1.68963 55.1552 0.00856565 64 3.23232e-05C72.8448 -0.008501 81.1648 1.67257 88.9599 5.04323C96.7551 8.41389 103.528 12.9728 109.28 18.72C115.031 24.4672 119.592 31.2405 122.963 39.04C126.334 46.8395 128.013 55.1595 128 64C127.987 72.8405 126.306 81.1605 122.957 88.96C119.607 96.7594 115.048 103.533 109.28 109.28C103.511 115.027 96.7381 119.588 88.9599 122.963C81.1818 126.338 72.8618 128.017 64 128Z" fill="black"/>
</svg>
