<svg width="128" height="116" viewBox="0 0 128 116" fill="none" xmlns="http://www.w3.org/2000/svg">
<path d="M128 34.8858C128 30.6214 124.418 27.1639 120 27.1639H106.344C109.878 23.799 112.14 19.388 112.14 13.9555C112.14 7.26635 108.16 0 96.988 0C82.288 0 70.008 15.108 64.238 23.577C58.464 15.1099 45.808 0.00193035 31.11 0.00193035C19.938 0.00193035 15.958 7.26828 15.958 13.9574C15.958 19.3879 18.282 23.801 21.888 27.1658H8C3.582 27.1658 0 30.6233 0 34.8878V58.0015H8.07V108.262C8.07 112.526 11.6519 115.984 16.07 115.984H112.03C116.448 115.984 120.03 112.526 120.03 108.262V57.9996H128V34.8858H128ZM96.988 7.72388C101.934 7.72388 104.14 9.72978 104.14 13.9575C104.14 22.5347 94.222 27.162 84.894 27.162H71.352C77.0359 19.0134 87.04 7.72388 96.988 7.72388ZM31.1099 7.724C41.0599 7.724 51.4418 19.0135 57.1258 27.1601H43.5798C34.2518 27.1601 23.9578 22.4131 23.9578 13.8359C23.9578 9.61009 26.1638 7.724 31.1099 7.724ZM120 50.2776H67.9999V34.8858H120V50.2776ZM7.99988 34.8858H59.9999V50.2776H7.99988V34.8858ZM16.0699 57.9996H59.9999V108.26H16.0699V57.9996ZM112.032 108.26H67.9999V57.9996H112.032V108.26Z" fill="black"/>
</svg>
