<svg width="115" height="144" viewBox="0 0 115 144" fill="none" xmlns="http://www.w3.org/2000/svg">
<path d="M0 72C0 73.9096 0.757254 75.7409 2.10517 77.0912C3.45309 78.4414 5.28126 79.2 7.1875 79.2H61.7406L45.2094 95.688C44.5357 96.3573 44.001 97.1537 43.6361 98.031C43.2712 98.9084 43.0833 99.8495 43.0833 100.8C43.0833 101.75 43.2712 102.692 43.6361 103.569C44.001 104.446 44.5357 105.243 45.2094 105.912C45.8775 106.587 46.6725 107.122 47.5484 107.488C48.4242 107.854 49.3637 108.042 50.3125 108.042C51.2613 108.042 52.2008 107.854 53.0766 107.488C53.9525 107.122 54.7475 106.587 55.4156 105.912L84.1656 77.112C84.82 76.4273 85.3329 75.6198 85.675 74.736C86.3939 72.9831 86.3939 71.0169 85.675 69.264C85.3329 68.3802 84.82 67.5727 84.1656 66.888L55.4156 38.088C54.7455 37.4167 53.9499 36.8842 53.0743 36.5209C52.1987 36.1575 51.2602 35.9705 50.3125 35.9705C49.3648 35.9705 48.4263 36.1575 47.5507 36.5209C46.6751 36.8842 45.8795 37.4167 45.2094 38.088C44.5392 38.7593 44.0076 39.5563 43.6449 40.4334C43.2823 41.3105 43.0956 42.2506 43.0956 43.2C43.0956 44.1494 43.2823 45.0895 43.6449 45.9666C44.0076 46.8437 44.5392 47.6407 45.2094 48.312L61.7406 64.8H7.1875C5.28126 64.8 3.45309 65.5586 2.10517 66.9088C0.757254 68.2591 0 70.0904 0 72ZM93.4375 0H21.5625C15.8438 0 10.3593 2.27571 6.31551 6.32649C2.27176 10.3773 0 15.8713 0 21.6V43.2C0 45.1096 0.757254 46.9409 2.10517 48.2912C3.45309 49.6414 5.28126 50.4 7.1875 50.4C9.09374 50.4 10.9219 49.6414 12.2698 48.2912C13.6177 46.9409 14.375 45.1096 14.375 43.2V21.6C14.375 19.6904 15.1323 17.8591 16.4802 16.5088C17.8281 15.1586 19.6563 14.4 21.5625 14.4H93.4375C95.3437 14.4 97.1719 15.1586 98.5198 16.5088C99.8678 17.8591 100.625 19.6904 100.625 21.6V122.4C100.625 124.31 99.8678 126.141 98.5198 127.491C97.1719 128.841 95.3437 129.6 93.4375 129.6H21.5625C19.6563 129.6 17.8281 128.841 16.4802 127.491C15.1323 126.141 14.375 124.31 14.375 122.4V100.8C14.375 98.8904 13.6177 97.0591 12.2698 95.7088C10.9219 94.3586 9.09374 93.6 7.1875 93.6C5.28126 93.6 3.45309 94.3586 2.10517 95.7088C0.757254 97.0591 0 98.8904 0 100.8V122.4C0 128.129 2.27176 133.623 6.31551 137.674C10.3593 141.724 15.8438 144 21.5625 144H93.4375C99.1562 144 104.641 141.724 108.684 137.674C112.728 133.623 115 128.129 115 122.4V21.6C115 15.8713 112.728 10.3773 108.684 6.32649C104.641 2.27571 99.1562 0 93.4375 0Z" fill="black"/>
</svg>
