<svg width="24" height="32" viewBox="0 0 24 32" fill="none" xmlns="http://www.w3.org/2000/svg">
<path d="M19.5 1.51308H13.5V0H10.5V1.51308H4.5C3.30653 1.51308 2.16193 1.99132 1.31802 2.84259C0.474106 3.69386 0 4.84843 0 6.05231V10.5915C0 12.598 0.790176 14.5223 2.1967 15.9411C3.60322 17.3599 5.51088 18.1569 7.5 18.1569H16.5C18.4891 18.1569 20.3968 17.3599 21.8033 15.9411C23.2098 14.5223 24 12.598 24 10.5915V6.05231C24 4.84843 23.5259 3.69386 22.682 2.84259C21.8381 1.99132 20.6935 1.51308 19.5 1.51308ZM10.5 9.83501C10.5 10.4369 10.2629 11.0142 9.84099 11.4399C9.41903 11.8655 8.84674 12.1046 8.25 12.1046C7.65326 12.1046 7.08097 11.8655 6.65901 11.4399C6.23705 11.0142 6 10.4369 6 9.83501C6 9.23307 6.23705 8.65578 6.65901 8.23015C7.08097 7.80451 7.65326 7.56539 8.25 7.56539C8.84674 7.56539 9.41903 7.80451 9.84099 8.23015C10.2629 8.65578 10.5 9.23307 10.5 9.83501ZM18 9.83501C18 10.4369 17.7629 11.0142 17.341 11.4399C16.919 11.8655 16.3467 12.1046 15.75 12.1046C15.1533 12.1046 14.581 11.8655 14.159 11.4399C13.7371 11.0142 13.5 10.4369 13.5 9.83501C13.5 9.23307 13.7371 8.65578 14.159 8.23015C14.581 7.80451 15.1533 7.56539 15.75 7.56539C16.3467 7.56539 16.919 7.80451 17.341 8.23015C17.7629 8.65578 18 9.23307 18 9.83501ZM0 31.7746C0 28.5643 1.26428 25.4854 3.51472 23.2154C5.76516 20.9453 8.8174 19.67 12 19.67C15.1826 19.67 18.2348 20.9453 20.4853 23.2154C22.7357 25.4854 24 28.5643 24 31.7746H0Z" fill="white"/>
</svg>
