<svg width="16" height="26" viewBox="0 0 16 26" fill="none" xmlns="http://www.w3.org/2000/svg">
<path d="M3.125 5.08752C3.125 3.84432 3.61886 2.65204 4.49794 1.77296C5.37701 0.893885 6.5693 0.400024 7.8125 0.400024C9.0557 0.400024 10.248 0.893885 11.1271 1.77296C12.0061 2.65204 12.5 3.84432 12.5 5.08752V12.9C12.5 14.1432 12.0061 15.3355 11.1271 16.2146C10.248 17.0937 9.0557 17.5875 7.8125 17.5875C6.5693 17.5875 5.37701 17.0937 4.49794 16.2146C3.61886 15.3355 3.125 14.1432 3.125 12.9V5.08752Z" fill="black"/>
<path d="M0.78125 10.5563C0.98845 10.5563 1.18716 10.6386 1.33368 10.7851C1.48019 10.9316 1.5625 11.1303 1.5625 11.3375V12.9C1.5625 14.5576 2.22098 16.1473 3.39308 17.3194C4.56518 18.4915 6.1549 19.15 7.8125 19.15C9.4701 19.15 11.0598 18.4915 12.2319 17.3194C13.404 16.1473 14.0625 14.5576 14.0625 12.9V11.3375C14.0625 11.1303 14.1448 10.9316 14.2913 10.7851C14.4378 10.6386 14.6365 10.5563 14.8438 10.5563C15.051 10.5563 15.2497 10.6386 15.3962 10.7851C15.5427 10.9316 15.625 11.1303 15.625 11.3375V12.9C15.625 14.8368 14.9056 16.7045 13.6064 18.1409C12.3072 19.5772 10.5208 20.4798 8.59375 20.6735V23.8375H13.2812C13.4885 23.8375 13.6872 23.9198 13.8337 24.0663C13.9802 24.2129 14.0625 24.4116 14.0625 24.6188C14.0625 24.826 13.9802 25.0247 13.8337 25.1712C13.6872 25.3177 13.4885 25.4 13.2812 25.4H2.34375C2.13655 25.4 1.93784 25.3177 1.79132 25.1712C1.64481 25.0247 1.5625 24.826 1.5625 24.6188C1.5625 24.4116 1.64481 24.2129 1.79132 24.0663C1.93784 23.9198 2.13655 23.8375 2.34375 23.8375H7.03125V20.6735C5.10419 20.4798 3.31777 19.5772 2.01856 18.1409C0.71935 16.7045 -2.43307e-05 14.8368 6.17197e-10 12.9V11.3375C6.17197e-10 11.1303 0.0823102 10.9316 0.228823 10.7851C0.375336 10.6386 0.57405 10.5563 0.78125 10.5563Z" fill="black"/>
</svg>
