<?xml version="1.0" encoding="UTF-8"?>
<svg xmlns="http://www.w3.org/2000/svg" xmlns:xlink="http://www.w3.org/1999/xlink" width="130px" height="130px" viewBox="0 0 130 130" version="1.1">
<g id="surface1">
<path style=" stroke:none;fill-rule:nonzero;fill:rgb(99.607843%,76.078431%,5.490196%);fill-opacity:1;" d="M 24.171875 103.007812 C 24.527344 101.613281 24.78125 100.394531 25.136719 99.203125 C 26.304688 95.238281 27.953125 91.507812 30.417969 88.15625 C 34.351562 82.796875 39.484375 78.988281 45.679688 76.628906 C 47.203125 76.046875 47.203125 76.019531 46.4375 74.570312 C 45.015625 71.828125 43.417969 69.113281 43.214844 65.992188 C 42.785156 59.234375 42.605469 52.457031 46.566406 46.4375 C 49.28125 42.328125 53.117188 39.789062 57.839844 38.441406 C 65.078125 36.382812 71.476562 38.035156 77.164062 42.835938 C 81.679688 46.667969 83.636719 51.671875 83.738281 57.433594 C 83.789062 60.835938 83.636719 64.265625 83.355469 67.664062 C 83.152344 69.953125 82.113281 72.007812 80.894531 73.9375 C 80.082031 75.234375 80.132812 75.335938 81.554688 75.96875 C 84.320312 77.210938 87.191406 78.304688 89.804688 79.828125 C 94.679688 82.671875 98.210938 86.910156 101.003906 91.761719 C 101.285156 92.242188 101.585938 92.75 100.902344 93.15625 C 100.242188 93.539062 99.8125 93.15625 99.507812 92.601562 C 97.855469 89.628906 95.796875 86.9375 93.3125 84.601562 C 89.453125 80.96875 84.882812 78.660156 79.804688 77.265625 C 78.890625 77.007812 78.152344 77.441406 77.519531 78.050781 C 73.429688 81.808594 68.65625 83.789062 63.046875 83.6875 C 58.578125 83.609375 54.667969 81.988281 51.113281 79.371094 C 48.320312 77.3125 48.878906 77.1875 45.425781 78.585938 C 37.25 81.9375 31.382812 87.648438 28.132812 95.875 C 27.296875 97.984375 26.761719 100.191406 26.152344 102.375 C 25.695312 104.027344 26.355469 105.398438 27.625 106.4375 C 36.410156 113.675781 46.464844 118.015625 57.738281 119.359375 C 63.882812 120.097656 70.027344 119.769531 76.097656 118.296875 C 81.707031 116.949219 87.039062 114.996094 92.042969 112.074219 C 92.625 111.742188 93.261719 111.210938 93.972656 111.871094 C 94.859375 112.683594 94.734375 113.75 93.566406 114.308594 C 90.289062 115.859375 87.039062 117.457031 83.6875 118.804688 C 78.914062 120.734375 73.9375 121.925781 68.785156 122.230469 C 61.777344 122.636719 54.820312 122.332031 48.066406 120.171875 C 45.070312 119.210938 42.074219 118.195312 39.179688 116.949219 C 34.9375 115.121094 31.054688 112.660156 27.421875 109.765625 C 21.277344 104.839844 16.175781 99 12.316406 92.140625 C 9.117188 86.453125 6.957031 80.359375 6.121094 73.859375 C 5.613281 70 5.128906 66.117188 5.15625 62.257812 C 5.179688 55.453125 6.296875 48.75 8.835938 42.402344 C 11.171875 36.511719 14.398438 31.15625 18.585938 26.328125 C 22.75 21.507812 27.347656 17.1875 32.703125 13.734375 C 40.117188 8.9375 48.191406 6.09375 56.976562 5.179688 C 64.519531 4.390625 71.933594 5.054688 79.246094 6.828125 C 86.734375 8.65625 93.488281 12.109375 99.582031 16.882812 C 107.402344 23.03125 113.421875 30.519531 117.484375 39.609375 C 120.277344 45.804688 121.925781 52.226562 122.5625 58.957031 C 122.890625 62.382812 122.6875 65.785156 122.332031 69.1875 C 121.851562 73.785156 121.164062 78.355469 119.464844 82.671875 C 117.992188 86.453125 116.113281 90.0625 114.359375 93.71875 C 113.902344 94.632812 113.167969 94.757812 112.40625 94.351562 C 111.492188 93.871094 111.566406 93.132812 111.949219 92.347656 C 113.21875 89.65625 114.5625 86.988281 115.757812 84.273438 C 117.863281 79.5 119.058594 74.46875 119.515625 69.265625 C 119.71875 67.109375 119.894531 64.949219 119.894531 62.789062 C 119.945312 55.402344 118.320312 48.367188 115.375 41.617188 C 112.683594 35.472656 109.105469 29.882812 104.558594 25.035156 C 100.546875 20.746094 96 17.089844 90.773438 14.296875 C 84.320312 10.867188 77.441406 8.964844 70.304688 8 C 62.664062 6.957031 55.148438 7.667969 47.734375 9.878906 C 39.964844 12.164062 33.261719 16.25 27.140625 21.40625 C 21.65625 26.027344 17.164062 31.5625 13.914062 37.960938 C 10.917969 43.925781 8.835938 50.195312 8.351562 56.875 C 8.074219 60.480469 7.84375 64.109375 8 67.71875 C 8.277344 73.910156 9.75 79.878906 12.238281 85.59375 C 14.929688 91.734375 18.613281 97.195312 23.183594 102.09375 C 23.4375 102.398438 23.765625 102.628906 24.171875 103.007812 Z M 63.453125 82.113281 C 66.726562 82.085938 68.65625 81.578125 72.71875 79.472656 C 77.164062 77.164062 80.109375 73.582031 81.351562 68.734375 C 82.847656 62.890625 82.722656 57.054688 80.867188 51.3125 C 79.523438 47.175781 76.832031 44 73.074219 41.792969 C 70.6875 40.398438 68.070312 39.863281 65.355469 39.558594 C 60.050781 38.972656 55.429688 40.296875 51.367188 43.824219 C 48.039062 46.695312 45.90625 50.25 45.195312 54.488281 C 44.738281 57.15625 44.816406 59.945312 44.789062 62.664062 C 44.738281 67.589844 46.1875 71.984375 49.5625 75.664062 C 53.296875 79.75 57.839844 82.0625 63.453125 82.113281 Z M 63.453125 82.113281 "/>
</g>
</svg>
